<svg aria-hidden="true"  version="1.1" xmlns="http://www.w3.org/2000/svg" xmlns:xlink="http://www.w3.org/1999/xlink">
<defs>
<symbol id="icon-logo" viewBox="0 0 69 32">
<path d="M41.020 15.997c0 0.261-0.008 0.521 0 0.783 0.086 2.653-0.714 5.043-1.999 7.296-0.431 0.756-0.843 1.524-1.214 2.314-0.306 0.649-0.732 1.104-1.393 1.37-0.37 0.148-0.712 0.405-1.022 0.669-1.426 1.218-3.044 2.091-4.774 2.705-1.149 0.408-2.333 0.767-3.582 0.751-0.372-0.004-0.745 0.114-1.118 0.115s-0.746-0.124-1.115-0.108c-1.61 0.071-3.102-0.441-4.583-0.979-1.616-0.587-3.043-1.513-4.386-2.617-1.895-1.558-3.245-3.52-4.237-5.765-0.535-1.211-0.97-2.46-1.093-3.804-0.021-0.223-0.092-0.444-0.155-0.66-0.45-1.507-0.191-2.985 0.087-4.486 0.213-1.148 0.432-2.283 0.847-3.373 1.097-2.884 2.839-5.245 5.252-7.1 2.011-1.545 4.263-2.494 6.71-2.902 2.809-0.468 5.551-0.131 8.211 0.963 1.327 0.548 2.58 1.241 3.674 2.159 1.020 0.856 1.941 1.858 2.81 2.883 0.788 0.928 1.347 2.034 1.847 3.162 0.78 1.762 1.289 3.586 1.237 5.546-0.011 0.362-0.003 0.721-0.003 1.080zM39.942 12.427c-0.078-0.616-0.126-1.329-0.272-2.022-0.415-1.992-1.53-3.548-3.016-4.818-0.844-0.722-1.764-1.349-2.67-1.988-0.307-0.216-0.664-0.415-1.022-0.481-0.922-0.176-1.854-0.34-2.788-0.389-1.622-0.085-3.078-0.518-4.303-1.685-0.901-0.858-1.883-0.941-2.819-0.186-1.062 0.855-2.27 1.357-3.502 1.854-0.902 0.364-1.772 0.823-2.639 1.276-0.725 0.379-1.147 0.971-1.137 1.867 0.006 0.503-0.217 0.923-0.667 1.201-0.375 0.234-0.736 0.492-1.079 0.773-0.96 0.781-1.708 1.662-1.869 3.027-0.128 1.080-0.444 2.148-1.159 3.038-0.239 0.306-0.387 0.677-0.427 1.069-0.066 0.807-0.039 1.625-0.019 2.437 0.005 0.217 0.097 0.451 0.204 0.642 0.247 0.452 0.516 0.891 0.807 1.315 0.703 1.011 1.313 2.046 1.455 3.329 0.137 1.244 0.717 2.257 1.7 3.030 1.423 1.121 2.795 2.311 4.239 3.402 0.776 0.588 1.607 1.102 2.631 1.221s2.028 0.408 2.946 0.941c0.192 0.107 0.404 0.174 0.621 0.197 1.295 0.144 2.494-0.187 3.632-0.814 0.357-0.197 0.724-0.375 1.093-0.546 0.889-0.412 1.874-0.682 2.649-1.255 0.861-0.639 1.782-0.923 2.771-1.101 0.427-0.077 0.776-0.26 1.054-0.588 0.332-0.39 0.639-0.802 0.985-1.179 0.358-0.389 0.616-0.802 0.678-1.356 0.096-0.849 0.447-1.599 0.893-2.319 0.755-1.217 1.184-2.562 1.407-3.992 0.059-0.375 0.092-0.692-0.088-1.023-0.519-0.953-0.307-2.034-0.472-3.049-0.083-0.548 0.108-1.148 0.189-1.832l-0.002 0.001zM33.691 2.909c-0.219-0.251-0.289-0.364-0.388-0.434-0.179-0.128-0.375-0.233-0.566-0.344-1.63-0.95-3.416-1.412-5.24-1.743-0.366-0.067-0.752-0.037-1.126-0.022-0.097 0.004-0.213 0.102-0.275 0.19-0.028 0.040 0.035 0.18 0.089 0.248 0.406 0.5 0.935 0.878 1.532 1.092 1.030 0.383 2.113 0.594 3.207 0.623 0.463 0.013 0.926 0.104 1.387 0.169 0.394 0.058 0.787 0.127 1.379 0.223zM19.841 30.284c-1.094-0.925-2.053-1.752-3.029-2.556-0.808-0.666-1.634-1.309-2.46-1.952-0.093-0.072-0.239-0.070-0.442-0.124 0.995 1.728 4.319 4.354 5.931 4.632zM12.468 8.699c0.66-0.521 1.27-1.070 1.941-1.524 0.94-0.633 1.299-1.421 1.077-2.773-0.667 0.564-1.142 1.244-1.657 1.861-0.543 0.651-0.946 1.426-1.399 2.155-0.035 0.059 0.022 0.175 0.038 0.281zM34.723 28.421c-0.616-0.044-1.236 0.069-1.622 0.412-0.733 0.652-1.605 0.98-2.492 1.306-0.466 0.171-0.905 0.422-1.343 0.661-0.061 0.033-0.072 0.209-0.059 0.313 0.004 0.035 0.168 0.092 0.236 0.069 0.796-0.281 1.619-0.507 2.374-0.883 0.925-0.459 1.793-1.040 2.678-1.579 0.093-0.054 0.142-0.181 0.228-0.299zM11.205 19.381c-0.177 0.54-0.142 0.838-0.031 1.156 0.309 0.883 0.496 1.814 1.052 2.585 0.206 0.286 0.248 0.925 0.629 0.787 0.335-0.12-0.057-0.627-0.080-0.968-0.088-1.304-0.751-2.355-1.571-3.561zM17.176 3.142l0.083 0.129c0.46-0.176 0.924-0.343 1.379-0.532 0.989-0.41 1.976-0.829 2.959-1.254 0.198-0.087 0.38-0.225 0.549-0.366 0.047-0.040 0.039-0.175 0.024-0.258-0.008-0.037-0.101-0.078-0.155-0.080-0.092 0.002-0.184 0.018-0.272 0.047-1.337 0.393-2.598 0.974-3.804 1.68-0.282 0.165-0.511 0.422-0.764 0.636zM40.654 17.147c0.081-0.097 0.144-0.138 0.148-0.183 0.13-1.421-0.015-2.829-0.203-4.233-0.009-0.071-0.104-0.172-0.168-0.18-0.071-0.010-0.182 0.051-0.225 0.117-0.071 0.104-0.115 0.225-0.128 0.352-0.071 1.158 0.003 2.321 0.22 3.46 0.043 0.23 0.227 0.432 0.357 0.668zM10.882 13.227c0.522-0.206 0.6-0.578 0.656-0.915 0.136-0.82 0.477-1.61 0.364-2.477-0.545 1.035-1.029 2.084-1.020 3.392zM23.508 31.234c-1.17-0.535-1.487-0.591-2.528-0.441 0.441 0.173 0.838 0.448 1.238 0.452 0.416 0.006 0.867 0.534 1.29-0.011z"></path>
<path d="M25.92 20.593c-0.8-0.015-1.349-0.361-1.756-1.030-0.379-0.624-1.009-0.947-1.586-1.332-0.728-0.484-1.32-1.031-1.488-2.012-0.116-0.665 0.019-1.244 0.28-1.769 0.219-0.439 0.611-0.847 1.022-1.108 0.446-0.283 0.815-0.55 1.021-1.073 0.233-0.602 0.82-0.638 1.34-0.747 0.489-0.102 0.987-0.167 1.47-0.295 0.66-0.174 1.259-0.12 1.741 0.411 0.373 0.412 0.808 0.708 1.293 0.958 0.505 0.26 0.671 0.564 0.513 1.107-0.108 0.369-0.004 0.62 0.129 0.914 0.145 0.321 0.295 0.647 0.394 0.986 0.332 1.128-0.050 2.077-1.073 2.58-0.634 0.311-1.12 0.726-1.278 1.456-0.063 0.294-0.241 0.461-0.491 0.537-0.506 0.153-1.020 0.28-1.53 0.417zM29.277 15.864c0.016-1.987-1.44-3.576-3.334-3.579-1.699 0-3.409 1.189-3.475 3.469-0.053 1.824 1.416 3.524 3.331 3.53 2.332 0.012 3.432-1.663 3.478-3.42zM22.449 17.764c0-0.255 0.024-0.385-0.004-0.503-0.251-1.079-0.415-2.148 0.155-3.188 0.041-0.075-0.054-0.229-0.085-0.346-0.112 0.037-0.247 0.045-0.332 0.117-0.941 0.799-1.361 2.718 0.265 3.92zM25.945 11.787c0.394 0.149 0.619 0.255 0.854 0.321 0.867 0.238 1.608 0.664 2.123 1.451 0.102 0.155 0.233 0.385 0.427 0.209 0.103-0.094 0.137-0.382 0.078-0.526-0.080-0.191-0.263-0.43-0.438-0.468-0.477-0.103-0.737-0.46-1.048-0.771-0.522-0.519-1.106-0.682-1.995-0.215zM25.891 19.609l-0.012-0.075c-0.25 0-0.502-0.022-0.748 0.009-0.127 0.016-0.241 0.127-0.361 0.195 0.109 0.1 0.204 0.257 0.33 0.29 0.672 0.175 1.35 0.213 2.013-0.055 0.113-0.046 0.239-0.106 0.311-0.201 0.063-0.080 0.083-0.223 0.071-0.331-0.005-0.040-0.162-0.101-0.239-0.088-0.455 0.074-0.909 0.167-1.361 0.254l-0.002 0.001zM29.329 17.571c0.466-0.089 0.674-0.361 0.701-0.779 0.020-0.352 0.015-0.705-0.015-1.056-0.007-0.093-0.132-0.175-0.203-0.263-0.104 0.101-0.314 0.238-0.295 0.299 0.189 0.609-0.206 1.155-0.188 1.797v0.001z"></path>
<path d="M33.59 20.323c-0.027 0.014-0.135 0.107-0.252 0.12-0.106 0.013-0.262-0.024-0.328-0.101-0.331-0.386-0.652-0.783-0.949-1.199-0.078-0.109-0.109-0.401-0.065-0.426 0.146-0.083 0.43-0.17 0.493-0.098 0.375 0.427 0.704 0.897 1.043 1.357 0.033 0.046 0.023 0.125 0.057 0.346z"></path>
<path d="M17.733 23.668c0.173 0.014 0.515 0.025 0.849 0.084 0.083 0.015 0.194 0.183 0.194 0.283s-0.096 0.274-0.179 0.295c-0.648 0.167-1.293 0.207-1.867-0.241-0.032-0.031-0.057-0.070-0.073-0.112s-0.022-0.089-0.018-0.134c0.012-0.067 0.113-0.16 0.18-0.165 0.249-0.022 0.498-0.010 0.914-0.010z"></path>
<path d="M38.046 9.562l0.245 0.139c-0.069 0.129-0.112 0.336-0.214 0.373-0.467 0.177-0.946 0.319-1.433 0.423-0.14 0.028-0.344-0.114-0.473-0.232-0.149-0.136-0.060-0.431 0.128-0.461 0.552-0.088 1.109-0.155 1.746-0.242z"></path>
<path d="M21.546 26.541c0.259 0.125 0.476 0.16 0.582 0.294 0.29 0.372 0.556 0.764 0.795 1.174 0.116 0.195 0.010 0.406-0.186 0.462-0.108 0.031-0.302-0.060-0.382-0.16-0.316-0.394-0.61-0.807-0.878-1.238-0.062-0.102 0.034-0.308 0.069-0.532z"></path>
<path d="M31.719 11.018c0.016-0.114 0-0.244 0.052-0.294 0.070-0.066 0.22-0.12 0.292-0.085 0.098 0.049 0.162 0.182 0.229 0.286 0.188 0.291 0.374 0.584 0.553 0.883 0.080 0.134 0.187 0.276 0.194 0.42 0.008 0.133-0.071 0.306-0.168 0.398-0.054 0.051-0.276 0.018-0.331-0.053-0.359-0.471-0.789-0.913-0.821-1.554z"></path>
<path d="M32.835 6.010c-0.078 0.481-0.109 0.836-0.199 1.175-0.057 0.183-0.165 0.345-0.311 0.465-0.103 0.086-0.282 0.073-0.427 0.105-0.012-0.14-0.054-0.286-0.029-0.419 0.076-0.41 0.177-0.815 0.268-1.222 0.007-0.032 0.005-0.065 0.014-0.096 0.071-0.245 0.226-0.432 0.473-0.331 0.125 0.051 0.183 0.276 0.211 0.323z"></path>
<path d="M26.143 9.141c0.218 0.028 0.5 0.043 0.77 0.111 0.092 0.023 0.228 0.194 0.212 0.268-0.028 0.132-0.134 0.306-0.246 0.345-0.178 0.057-0.368 0.058-0.547 0.003-0.31-0.102-0.6-0.136-0.909-0.002-0.203 0.088-0.394-0.004-0.449-0.214-0.073-0.281 0.132-0.417 0.361-0.456 0.245-0.042 0.497-0.035 0.808-0.054z"></path>
<path d="M30.984 22.97c-0.088 0.398-0.155 0.748-0.25 1.089-0.019 0.067-0.155 0.157-0.213 0.142-0.103-0.026-0.248-0.11-0.269-0.198-0.046-0.189-0.052-0.386-0.015-0.577 0.073-0.35 0.145-0.682 0.008-1.039-0.065-0.171-0.047-0.444 0.205-0.444 0.136 0 0.33 0.173 0.391 0.316 0.099 0.229 0.106 0.499 0.144 0.71z"></path>
<path d="M27.165 22.868c-0.050 0.093-0.075 0.204-0.141 0.251-0.409 0.291-0.818 0.584-1.248 0.838-0.11 0.065-0.303 0.025-0.443-0.018-0.205-0.063-0.248-0.342-0.078-0.455 0.47-0.312 0.944-0.621 1.428-0.908 0.078-0.046 0.233 0.004 0.333 0.055 0.068 0.035 0.097 0.149 0.149 0.237z"></path>
<path d="M21.957 4.155c0.066 0.040 0.191 0.075 0.208 0.139 0.162 0.618 0.319 1.238 0.448 1.864 0.036 0.174-0.187 0.27-0.336 0.166-0.469-0.327-0.762-1.536-0.488-2.042 0.028-0.050 0.097-0.075 0.168-0.128z"></path>
<path d="M27.756 5.911c-0.141-0.097-0.294-0.147-0.314-0.231-0.022-0.091 0.051-0.247 0.13-0.321 0.344-0.318 0.704-0.618 1.079-0.897 0.126-0.092 0.388-0.157 0.485-0.085 0.229 0.166 0.109 0.401-0.051 0.573-0.214 0.231-0.427 0.475-0.674 0.662-0.189 0.141-0.432 0.201-0.655 0.299z"></path>
<path d="M18.833 9.177l-0.343 0.335c-0.098-0.11-0.243-0.201-0.284-0.331-0.165-0.512-0.302-1.033-0.433-1.555-0.018-0.072 0.039-0.219 0.097-0.244 0.095-0.040 0.252-0.056 0.324 0 0.142 0.109 0.305 0.254 0.352 0.418 0.122 0.425 0.187 0.87 0.288 1.377z"></path>
<path d="M15.076 17.757c-0.315 0.596-0.554 1.207-1.14 1.533-0.099 0.055-0.317-0.015-0.422-0.102-0.179-0.147 0-0.27 0.087-0.395 0.275-0.392 0.529-0.8 0.822-1.177 0.075-0.097 0.267-0.144 0.397-0.131 0.088 0.008 0.161 0.164 0.257 0.272z"></path>
<path d="M18.632 17.808c0.164 0.098 0.283 0.128 0.305 0.192 0.036 0.106 0.055 0.272 0 0.346-0.090 0.117-0.244 0.184-0.377 0.263-0.344 0.204-0.684 0.42-1.042 0.594-0.109 0.053-0.307 0.037-0.404-0.035-0.2-0.147-0.13-0.383 0.031-0.487 0.491-0.318 1.008-0.596 1.486-0.873z"></path>
<path d="M36.428 15.106c-0.127 0.295-0.304 0.74-0.515 1.167-0.033 0.066-0.237 0.102-0.323 0.063-0.080-0.037-0.168-0.205-0.152-0.295 0.085-0.475 0.178-0.952 0.321-1.411 0.043-0.14 0.24-0.267 0.391-0.314 0.056-0.017 0.202 0.2 0.272 0.334 0.040 0.075 0.007 0.191 0.007 0.457z"></path>
<path d="M14.978 11.562c0.557 0.517 0.491 1.218 0.552 1.866 0.012 0.12-0.133 0.292-0.249 0.379-0.061 0.046-0.307-0.028-0.312-0.070-0.088-0.654-0.155-1.312-0.209-1.971-0.004-0.056 0.127-0.125 0.218-0.205z"></path>
<path d="M27.994 27.56c0.093 0.026 0.185 0.057 0.275 0.093 0.335 0.16 0.671 0.316 0.998 0.493 0.155 0.083 0.311 0.188 0.422 0.321 0.128 0.154-0.018 0.451-0.198 0.41-0.607-0.136-1.2-0.325-1.654-0.794-0.067-0.069-0.066-0.243-0.044-0.358 0.013-0.065 0.13-0.11 0.201-0.165z"></path>
<path d="M20.606 11.751c0.032 0.104 0.142 0.265 0.104 0.366-0.204 0.536-0.44 1.059-0.68 1.578-0.029 0.064-0.155 0.12-0.23 0.11-0.065-0.008-0.155-0.103-0.172-0.175-0.127-0.579 0.274-1.615 0.722-1.876 0.046-0.027 0.12-0.004 0.257-0.004z"></path>
<path d="M37.964 20.539c-0.070-0.046-0.215-0.102-0.291-0.209-0.030-0.043 0.068-0.239 0.152-0.301 0.373-0.281 0.755-0.549 1.152-0.789 0.107-0.065 0.33-0.069 0.409 0.003 0.073 0.067 0.083 0.321 0.018 0.414-0.333 0.48-0.753 0.846-1.439 0.883z"></path>
<path d="M35.658 24.67c-0.288-0.031-0.413-0.034-0.533-0.062-0.051-0.012-0.127-0.074-0.127-0.114-0.005-0.091 0.018-0.182 0.066-0.259 0.062-0.073 0.143-0.125 0.233-0.15 0.444-0.138 0.889-0.276 1.339-0.388 0.098-0.024 0.304 0.043 0.317 0.1 0.029 0.137-0.006 0.303-0.058 0.441-0.028 0.073-0.137 0.134-0.222 0.16-0.386 0.11-0.773 0.207-1.014 0.272z"></path>
<path d="M22.288 21.355c-0.032 0.14-0.083 0.45-0.183 0.743-0.025 0.073-0.219 0.142-0.308 0.116s-0.194-0.178-0.191-0.274c0.009-0.541 0.035-1.083 0.088-1.622 0.011-0.117 0.155-0.221 0.238-0.331 0.099 0.109 0.26 0.205 0.286 0.329 0.056 0.279 0.044 0.573 0.070 1.039z"></path>
<path d="M43.096 4.422c0-1.146 0.268-2.016 0.805-2.608 0.542-0.598 1.237-0.898 2.084-0.898s1.521 0.258 2.020 0.775c0.506 0.516 0.759 1.342 0.759 2.475s-0.268 1.99-0.805 2.57c-0.536 0.579-1.252 0.869-2.148 0.869-0.774 0-1.408-0.23-1.902-0.69-0.256-0.239-0.457-0.57-0.603-0.992-0.14-0.428-0.21-0.929-0.21-1.502zM45.958 1.012c-0.616 0-1.121 0.283-1.518 0.85-0.39 0.567-0.585 1.398-0.585 2.494s0.186 1.896 0.558 2.4c0.372 0.504 0.865 0.756 1.481 0.756 0.622 0 1.128-0.283 1.518-0.85 0.396-0.573 0.594-1.401 0.594-2.485 0-1.090-0.189-1.89-0.567-2.4-0.372-0.51-0.865-0.765-1.481-0.765z"></path>
<path d="M50.346 7.569h-0.759v-6.614h0.759v3.042h2.971v-3.042h0.759v6.614h-0.759v-3.477h-2.971v3.477z"></path>
<path d="M57.976 7.569h-0.119l0.795-6.614h0.302l1.92 6.113 1.911-6.113h0.302l0.795 6.614h-0.759l-0.631-5.291-1.655 5.291h-0.576l-1.673-5.225-0.613 5.225z"></path>
<path d="M68.947 0.955c0.116 0.12 0.173 0.274 0.173 0.463 0 0.157-0.033 0.318-0.1 0.482l-1.636 3.43v2.239h-0.759v-2.031l-1.828-4.582h0.778l1.746 4.261 1.59-3.316c0.067-0.157 0.101-0.321 0.101-0.491s-0.046-0.302-0.138-0.397l0.074-0.057z"></path>
<path d="M1.289 9.306c0.473-0.022 0.934-0.033 1.385-0.033 0.462 0 0.945 0.050 1.45 0.15 0.516 0.1 1.020 0.289 1.514 0.566 0.505 0.266 0.929 0.616 1.273 1.049 0.354 0.422 0.639 0.982 0.854 1.682s0.322 1.548 0.322 2.547c0 0.999-0.161 1.898-0.483 2.697-0.311 0.788-0.741 1.393-1.289 1.815-1.063 0.821-2.347 1.232-3.85 1.232-0.526 0-1.079-0.022-1.659-0.067h-0.805v-11.638h1.289zM1.337 20.811c0.226 0.022 0.51 0.033 0.854 0.033s0.601-0.006 0.773-0.017c0.172-0.011 0.408-0.055 0.709-0.133 0.301-0.089 0.58-0.205 0.838-0.35s0.526-0.355 0.806-0.633c0.29-0.289 0.537-0.627 0.741-1.016 0.462-0.91 0.693-2.098 0.693-3.563 0-1.043-0.123-1.942-0.37-2.697-0.247-0.766-0.532-1.332-0.854-1.698-0.311-0.366-0.693-0.655-1.144-0.866-0.451-0.222-0.811-0.35-1.079-0.383s-0.58-0.050-0.934-0.050c-0.354 0-0.698 0.017-1.031 0.050v11.321z"></path>
<path d="M43.358 20.944h-0.209v-11.654h0.548l6.702 10.772v-10.772h0.209v11.654h-1.176l-6.074-9.656v9.656z"></path>
<path d="M60.528 9.29h0.209v6.66c0 1.743-0.333 3.025-0.999 3.846-0.666 0.81-1.536 1.215-2.61 1.215-0.677 0-1.251-0.061-1.724-0.183-0.472-0.133-0.918-0.372-1.337-0.716-0.859-0.688-1.289-2.076-1.289-4.162v-6.66h1.337v6.643c0 2.020 0.295 3.369 0.886 4.046 0.301 0.333 0.612 0.561 0.934 0.683 0.333 0.122 0.73 0.183 1.192 0.183 1.031 0 1.853-0.388 2.465-1.165 0.623-0.788 0.934-2.037 0.934-3.746v-6.643z"></path>
<path d="M66.233 20.944h-1.337v-11.488h-2.787v-0.167h6.927v0.167h-2.803v11.488z"></path>
</symbol>

<symbol id="icon-bm" viewBox="0 0 30 16">
<rect width="30" height="2" rx="1" />
<rect y="7" width="30" height="2" rx="1"/>
<rect y="14" width="30" height="2" rx="1"/>
</symbol>

<symbol id="icon-close" viewBox="0 0 19 19">
<path d="M17.884 0.705973L10 8.58997L2.11602 0.705973C1.9264 0.532452 1.67714 0.438781 1.42017 0.444475C1.1632 0.450169 0.918335 0.554788 0.736585 0.736538C0.554835 0.918288 0.450216 1.16315 0.444522 1.42012C0.438828 1.67709 0.532499 1.92635 0.70602 2.11597L8.58602 9.99997L0.70402 17.882C0.607725 17.9737 0.530747 18.0838 0.477612 18.2058C0.424476 18.3277 0.396255 18.4591 0.394608 18.5921C0.39296 18.7251 0.41792 18.8571 0.468019 18.9803C0.518118 19.1035 0.592346 19.2155 0.686339 19.3096C0.780332 19.4038 0.892193 19.4781 1.01535 19.5284C1.1385 19.5787 1.27046 19.6038 1.40348 19.6024C1.53649 19.6009 1.66787 19.5729 1.78989 19.5199C1.91191 19.467 2.02211 19.3901 2.11402 19.294L10 11.412L17.884 19.296C18.0736 19.4695 18.3229 19.5632 18.5799 19.5575C18.8368 19.5518 19.0817 19.4472 19.2635 19.2654C19.4452 19.0837 19.5498 18.8388 19.5555 18.5818C19.5612 18.3249 19.4675 18.0756 19.294 17.886L11.41 10.002L19.294 2.11597C19.3903 2.0242 19.4673 1.91411 19.5204 1.79216C19.5736 1.67022 19.6018 1.53888 19.6034 1.40587C19.6051 1.27286 19.5801 1.14086 19.53 1.01763C19.4799 0.894408 19.4057 0.782442 19.3117 0.688315C19.2177 0.594189 19.1058 0.519803 18.9827 0.469529C18.8595 0.419255 18.7276 0.394109 18.5946 0.395568C18.4616 0.397027 18.3302 0.425061 18.2082 0.478024C18.0861 0.530987 17.9759 0.607808 17.884 0.703973V0.705973Z"/>
</symbol>

<symbol id="icon-twitter" viewBox="0 0 16 16">
<path d="M16 2.72037C15.405 3.01212 14.771 3.20551 14.11 3.29941C14.79 2.84556 15.309 2.13238 15.553 1.27275C14.919 1.6953 14.219 1.99377 13.473 2.16032C12.871 1.44379 12.013 1 11.077 1C9.261 1 7.799 2.64771 7.799 4.66765C7.799 4.95829 7.821 5.23776 7.875 5.5038C5.148 5.35513 2.735 3.8941 1.114 1.66847C0.831 2.21733 0.665 2.84556 0.665 3.52186C0.665 4.79174 1.25 5.91741 2.122 6.56911C1.595 6.55793 1.078 6.3869 0.64 6.1175C0.64 6.12868 0.64 6.14321 0.64 6.15774C0.64 7.93959 1.777 9.41962 3.268 9.76056C3.001 9.84217 2.71 9.88129 2.408 9.88129C2.198 9.88129 1.986 9.86788 1.787 9.81869C2.212 11.2708 3.418 12.3383 4.852 12.373C3.736 13.3489 2.319 13.9368 0.785 13.9368C0.516 13.9368 0.258 13.9234 0 13.8865C1.453 14.934 3.175 15.532 5.032 15.532C11.068 15.532 14.368 9.94277 14.368 5.09803C14.368 4.93594 14.363 4.77944 14.356 4.62406C15.007 4.10761 15.554 3.46262 16 2.72037Z"></path>
</symbol>

<symbol id="icon-instagram" viewBox="0 0 16 16">
<path d="M8.15778 16C8.1048 16 8.05182 16 7.99847 15.9998C6.74428 16.0028 5.58542 15.9709 4.45842 15.9023C3.42518 15.8395 2.48203 15.4824 1.73078 14.8699C1.0059 14.2788 0.510884 13.4796 0.259531 12.4947C0.0407731 11.6373 0.0291759 10.7956 0.0180671 9.98155C0.0100101 9.39744 0.00170905 8.7053 0 8.00144C0.00170905 7.29465 0.0100101 6.60251 0.0180671 6.0184C0.0291759 5.20444 0.0407731 4.36276 0.259531 3.50521C0.510884 2.52035 1.0059 1.72115 1.73078 1.13009C2.48203 0.517535 3.42518 0.160478 4.45854 0.0976116C5.58554 0.02913 6.74464 -0.00285251 8.00153 0.000199254C9.25609 -0.0024863 10.4146 0.02913 11.5416 0.0976116C12.5748 0.160478 13.518 0.517535 14.2692 1.13009C14.9942 1.72115 15.4891 2.52035 15.7405 3.50521C15.9592 4.36264 15.9708 5.20444 15.9819 6.0184C15.99 6.60251 15.9984 7.29465 16 7.99851V8.00144C15.9984 8.7053 15.99 9.39744 15.9819 9.98155C15.9708 10.7955 15.9593 11.6372 15.7405 12.4947C15.4891 13.4796 14.9942 14.2788 14.2692 14.8699C13.518 15.4824 12.5748 15.8395 11.5416 15.9023C10.4623 15.968 9.35363 16 8.15778 16ZM7.99847 14.7498C9.23229 14.7527 10.3651 14.7216 11.4656 14.6547C12.2469 14.6072 12.9243 14.3536 13.4793 13.9011C13.9922 13.4828 14.3455 12.9056 14.5292 12.1857C14.7114 11.4719 14.7219 10.7056 14.732 9.96446C14.7399 9.38426 14.7482 8.697 14.75 7.99998C14.7482 7.30283 14.7399 6.6157 14.732 6.03549C14.7219 5.2944 14.7114 4.52804 14.5292 3.81418C14.3455 3.0942 13.9922 2.51705 13.4793 2.09872C12.9243 1.64632 12.2469 1.39278 11.4656 1.3453C10.3651 1.27828 9.23229 1.2474 8.0014 1.25008C6.76784 1.24715 5.63486 1.27828 4.53435 1.3453C3.75307 1.39278 3.07568 1.64632 2.52073 2.09872C2.00777 2.51705 1.65448 3.0942 1.47076 3.81418C1.28862 4.52804 1.27812 5.29428 1.26799 6.03549C1.26006 6.61619 1.25176 7.30381 1.25005 8.00144C1.25176 8.69602 1.26006 9.38377 1.26799 9.96446C1.27812 10.7056 1.28862 11.4719 1.47076 12.1857C1.65448 12.9056 2.00777 13.4828 2.52073 13.9011C3.07568 14.3535 3.75307 14.6071 4.53435 14.6545C5.63486 14.7216 6.76808 14.7528 7.99847 14.7498ZM7.96869 11.9062C5.8148 11.9062 4.06229 10.1539 4.06229 7.99998C4.06229 5.84604 5.8148 4.09372 7.96869 4.09372C10.1227 4.09372 11.8751 5.84604 11.8751 7.99998C11.8751 10.1539 10.1227 11.9062 7.96869 11.9062ZM7.96869 5.34372C6.50403 5.34372 5.31234 6.53537 5.31234 7.99998C5.31234 9.46458 6.50403 10.6562 7.96869 10.6562C9.43347 10.6562 10.625 9.46458 10.625 7.99998C10.625 6.53537 9.43347 5.34372 7.96869 5.34372ZM12.3126 2.84371C11.7949 2.84371 11.3751 3.26339 11.3751 3.78122C11.3751 4.29904 11.7949 4.71872 12.3126 4.71872C12.8304 4.71872 13.2501 4.29904 13.2501 3.78122C13.2501 3.26339 12.8304 2.84371 12.3126 2.84371Z"></path>
</symbol>

<symbol id="icon-facebook" viewBox="0 0 16 16">
<path d="M11.2561 0.00332907L9.44759 0C7.41579 0 6.10275 1.54552 6.10275 3.93762V5.75313H4.28437C4.12724 5.75313 4 5.89927 4 6.07954V8.71001C4 8.89028 4.12739 9.03625 4.28437 9.03625H6.10275V15.6738C6.10275 15.854 6.22999 16 6.38712 16H8.75959C8.91672 16 9.04396 15.8539 9.04396 15.6738V9.03625H11.1701C11.3272 9.03625 11.4544 8.89028 11.4544 8.71001L11.4553 6.07954C11.4553 5.99299 11.4253 5.91009 11.372 5.84884C11.3188 5.78758 11.2462 5.75313 11.1708 5.75313H9.04396V4.2141C9.04396 3.47438 9.19761 3.09886 10.0375 3.09886L11.2558 3.09836C11.4128 3.09836 11.54 2.95222 11.54 2.77211V0.329578C11.54 0.149642 11.4129 0.00366197 11.2561 0.00332907Z"></path>
</symbol>


<symbol id="icon-star" >
<path d="M9.04894 0.927052C9.3483 0.00574112 10.6517 0.00573993 10.9511 0.927051L12.4697 5.60081C12.6035 6.01284 12.9875 6.2918 13.4207 6.2918H18.335C19.3037 6.2918 19.7065 7.53141 18.9228 8.10081L14.947 10.9894C14.5966 11.244 14.4499 11.6954 14.5838 12.1074L16.1024 16.7812C16.4017 17.7025 15.3472 18.4686 14.5635 17.8992L10.5878 15.0106C10.2373 14.756 9.7627 14.756 9.41221 15.0106L5.43648 17.8992C4.65276 18.4686 3.59828 17.7025 3.89763 16.7812L5.41623 12.1074C5.55011 11.6954 5.40345 11.244 5.05296 10.9894L1.07722 8.10081C0.293507 7.53141 0.696283 6.2918 1.66501 6.2918H6.57929C7.01252 6.2918 7.39647 6.01284 7.53035 5.60081L9.04894 0.927052Z" fill="#EDD501"/>
</symbol>
<symbol id="icon-star-empty" >
<path d="M9.44122 1.81105C9.5909 1.3504 10.2426 1.3504 10.3923 1.81105L11.8828 6.39844C12.0836 7.01647 12.6596 7.43492 13.3094 7.43492H18.1329C18.6172 7.43492 18.8186 8.05473 18.4268 8.33942L14.5245 11.1746C13.9988 11.5566 13.7788 12.2336 13.9796 12.8516L15.4701 17.439C15.6198 17.8997 15.0925 18.2827 14.7007 17.998L10.7984 15.1629C10.2727 14.7809 9.5608 14.7809 9.03507 15.1629L5.13281 17.998C4.74095 18.2827 4.21371 17.8997 4.36338 17.439L5.85392 12.8516C6.05473 12.2336 5.83474 11.5566 5.30901 11.1746L1.40674 8.33943C1.01488 8.05472 1.21628 7.43492 1.70064 7.43492H6.5241C7.17394 7.43492 7.74988 7.01648 7.95069 6.39844L9.44122 1.81105Z" fill="#ffffff" stroke="#EDD501"/>
</symbol>


</defs>
</svg>
